<svg xmlns="http://www.w3.org/2000/svg" viewBox="0 0 128 128">
  <rect width="128" height="128" rx="26" fill="#030304"/>
  <path d="M27 79c5 7 13 10 24 10 12 0 20-6 20-15 0-8-5-13-16-16l-11-3c-5-1-8-3-8-7 0-4 4-7 11-7 7 0 13 2 18 7l8-10c-6-6-15-9-26-9-13 0-23 7-23 18 0 8 6 14 17 17l11 3c5 1 7 3 7 7 0 4-4 7-11 7-8 0-14-3-18-8l-9 6Z" fill="#f4f4f5"/>
  <path d="M74 86c-9-6-14-16-14-28 0-17 12-29 30-29s30 12 30 29c0 11-5 21-14 27l12 12-9 9-15-15c-1 0-3 0-4 0-6 0-11-1-16-5Zm16-8c10 0 17-8 17-20s-7-20-17-20-17 8-17 20 7 20 17 20Z" fill="#ff2d2d"/>
  <path d="M91 70l25 25" stroke="#f4f4f5" stroke-width="7" stroke-linecap="round"/>
</svg>
